<svg xmlns="http://www.w3.org/2000/svg" viewBox="0 0 2191 2191" fill="#FF5524"><path d="M1971.9 1314.6C1850.9 1314.6 1752.8 1216.5 1752.8 1095.49C1752.8 974.486 1850.9 876.4 1971.9 876.4C2092.89 876.4 2191 778.304 2191 657.295C2191 536.286 2092.9 438.2 1971.9 438.2C1850.89 438.2 1752.8 340.104 1752.8 219.095C1752.8 98.0861 1654.7 0 1533.7 0C1412.69 0 1314.6 98.0962 1314.6 219.095C1314.6 340.094 1216.5 438.2 1095.49 438.2C974.486 438.2 876.4 340.104 876.4 219.095C876.4 98.0861 778.304 0 657.295 0C536.286 0 438.2 98.0962 438.2 219.095C438.2 340.094 340.104 438.2 219.095 438.2C98.0861 438.2 0 536.296 0 657.295C0 778.294 98.0962 876.4 219.095 876.4C340.094 876.4 438.2 974.496 438.2 1095.49C438.2 1216.49 340.104 1314.6 219.095 1314.6C98.0861 1314.6 0 1412.7 0 1533.7C0 1654.69 98.0962 1752.8 219.095 1752.8C340.094 1752.8 438.2 1850.9 438.2 1971.9C438.2 2092.89 536.296 2191 657.295 2191C778.294 2191 876.4 2092.9 876.4 1971.9C876.4 1850.89 974.496 1752.8 1095.49 1752.8C1216.49 1752.8 1314.6 1850.9 1314.6 1971.9C1314.6 2092.89 1412.7 2191 1533.7 2191C1654.69 2191 1752.8 2092.9 1752.8 1971.9C1752.8 1850.89 1850.9 1752.8 1971.9 1752.8C2092.89 1752.8 2191 1654.7 2191 1533.7C2191 1412.69 2092.9 1314.6 1971.9 1314.6ZM1314.6 1533.7C1314.6 1412.7 1216.5 1314.6 1095.49 1314.6C974.486 1314.6 876.4 1412.7 876.4 1533.7C876.4 1654.69 778.304 1752.8 657.295 1752.8C536.286 1752.8 438.2 1654.7 438.2 1533.7C438.2 1412.69 536.296 1314.6 657.295 1314.6C778.294 1314.6 876.4 1216.5 876.4 1095.49C876.4 974.486 778.304 876.4 657.295 876.4C536.286 876.4 438.2 778.304 438.2 657.295C438.2 536.286 536.296 438.2 657.295 438.2C778.294 438.2 876.4 536.296 876.4 657.295C876.4 778.294 974.496 876.4 1095.49 876.4C1216.49 876.4 1314.6 778.304 1314.6 657.295C1314.6 536.286 1412.7 438.2 1533.7 438.2C1654.69 438.2 1752.8 536.296 1752.8 657.295C1752.8 778.294 1654.7 876.4 1533.7 876.4C1412.69 876.4 1314.6 974.496 1314.6 1095.49C1314.6 1216.49 1412.7 1314.6 1533.7 1314.6C1654.69 1314.6 1752.8 1412.7 1752.8 1533.7C1752.8 1654.69 1654.7 1752.8 1533.7 1752.8C1412.69 1752.8 1314.6 1654.7 1314.6 1533.7Z"/></svg>
