<?xml version="1.0" encoding="UTF-8"?>
<svg id="Camada_2" data-name="Camada 2" xmlns="http://www.w3.org/2000/svg" viewBox="0 0 2175.45 2175.45">
  <defs>
    <style>
      .cls-1 {
        fill: #fff;
      }
    </style>
  </defs>
  <g id="Camada_1-2" data-name="Camada 1">
    <path class="cls-1" d="M1957.9,1305.27c-120.14,0-217.54-97.4-217.54-217.55s97.4-217.54,217.54-217.54,217.55-97.4,217.55-217.55-97.4-217.54-217.55-217.54-217.54-97.4-217.54-217.55S1642.96,0,1522.81,0s-217.54,97.4-217.54,217.54-97.4,217.55-217.55,217.55-217.54-97.4-217.54-217.55S772.78,0,652.63,0s-217.54,97.4-217.54,217.54-97.4,217.55-217.55,217.55S0,532.49,0,652.63s97.4,217.55,217.54,217.55,217.55,97.4,217.55,217.54-97.4,217.55-217.55,217.55S0,1402.67,0,1522.81s97.4,217.55,217.54,217.55,217.55,97.4,217.55,217.54,97.4,217.55,217.54,217.55,217.55-97.4,217.55-217.55,97.4-217.54,217.54-217.54,217.55,97.4,217.55,217.54,97.4,217.55,217.54,217.55,217.55-97.4,217.55-217.55,97.4-217.54,217.54-217.54,217.55-97.4,217.55-217.55-97.4-217.54-217.55-217.54ZM1305.27,1522.81c0-120.14-97.4-217.54-217.55-217.54s-217.54,97.4-217.54,217.54-97.4,217.55-217.55,217.55-217.54-97.4-217.54-217.55,97.4-217.54,217.54-217.54,217.55-97.4,217.55-217.55-97.4-217.54-217.55-217.54-217.54-97.4-217.54-217.55,97.4-217.54,217.54-217.54,217.55,97.4,217.55,217.54,97.4,217.55,217.54,217.55,217.55-97.4,217.55-217.55,97.4-217.54,217.54-217.54,217.55,97.4,217.55,217.54-97.4,217.55-217.55,217.55-217.54,97.4-217.54,217.54,97.4,217.55,217.54,217.55,217.55,97.4,217.55,217.54-97.4,217.55-217.55,217.55-217.54-97.4-217.54-217.55Z"/>
  </g>
</svg>